<?xml version="1.0" encoding="utf-8"?>
<!-- Generator: Adobe Illustrator 24.3.0, SVG Export Plug-In . SVG Version: 6.00 Build 0)  -->
<svg version="1.1" id="Layer_1" xmlns="http://www.w3.org/2000/svg" xmlns:xlink="http://www.w3.org/1999/xlink" x="0px" y="0px"
	 viewBox="0 0 128 128" style="enable-background:new 0 0 128 128;" xml:space="preserve">
<style type="text/css">
	.st0{fill:#26211F;}
</style>
<g>
	<g>
		<path class="st0" d="M89.4,40.9c-2.1,0.3-3.7,1.2-5.1,2.7C75.6,52.3,67,60.9,58.2,69.7c-1.4-1.4-2.8-2.9-4.2-4.2
			c-2.4-2.4-4.7-4.8-7.3-7c-2.9-2.5-7.3-2-9.9,0.7c-2.7,2.8-2.9,7.2-0.3,10c2,2.2,4.1,4.3,6.2,6.4c3.4,3.4,6.8,6.9,10.3,10.2
			c3.4,3.1,7.6,2.9,10.9-0.4C74.3,75,84.8,64.5,95.2,54.1c2-2,2.8-4.3,2.4-7.1C97,43.3,93,40.4,89.4,40.9z M64,0C28.7,0,0,28.7,0,64
			c0,35.3,28.7,64,64,64c35.3,0,64-28.7,64-64C128,28.7,99.3,0,64,0z M64,122C32,122,6,96,6,64C6,32,32,6,64,6s58,26,58,58
			C122,96,96,122,64,122z"/>
	</g>
</g>
</svg>
