<?xml version="1.0" encoding="utf-8"?>
<!-- Generator: Adobe Illustrator 24.3.0, SVG Export Plug-In . SVG Version: 6.00 Build 0)  -->
<svg version="1.1" id="Layer_1" xmlns="http://www.w3.org/2000/svg" xmlns:xlink="http://www.w3.org/1999/xlink" x="0px" y="0px"
	 viewBox="0 0 128 128" style="enable-background:new 0 0 128 128;" xml:space="preserve">
<style type="text/css">
	.st0{fill:#26211F;}
</style>
<g>
	<g>
		<path class="st0" d="M64,0C28.7,0,0,28.7,0,64c0,35.3,28.7,64,64,64s64-28.7,64-64C128,28.7,99.3,0,64,0z M64,122
			C32,122,6,96,6,64C6,32,32,6,64,6s58,26,58,58C122,96,96,122,64,122z M103.6,25.8c-0.7-0.8-1.7-1.2-2.6-1.1
			c-0.8-0.1-1.7,0-2.5,0.4L16,68.7c-1.4,0.7-2.2,2.2-2.1,3.7c0.1,1.6,1,2.9,2.5,3.5l15.1,6.2l9.8,20.8c0.7,1.4,2.1,2.3,3.6,2.3
			c0.1,0,0.2,0,0.4,0c0.1,0,0.2,0,0.3,0c0.7,0,1.3-0.2,1.9-0.7l12.1-9.9l8.4,4.1c1,0.5,2.1,0.5,3.1,0.2c1-0.4,1.9-1.1,2.3-2.1
			L104,30.4c0.4-0.8,0.4-1.7,0.3-2.6C104.3,27.1,104.1,26.4,103.6,25.8z M49.4,95.2l0.4-5.3l3.8,1.9L49.4,95.2z M68.8,92.5l-19-9.3
			c-1.2-0.6-2.6-0.5-3.8,0.1c-1.2,0.7-1.9,1.9-2,3.2l-0.5,7.1l-7-14.7c-0.4-0.9-1.2-1.6-2.1-2L22.6,72l57.4-30.3L42.6,73.1
			c-1.3,1.1-1.4,3-0.4,4.2c0.6,0.7,1.4,1.1,2.3,1.1c0.7,0,1.4-0.2,1.9-0.7l47.6-40L68.8,92.5z"/>
	</g>
</g>
</svg>
