<?xml version="1.0" encoding="utf-8"?>
<!-- Generator: Adobe Illustrator 24.3.0, SVG Export Plug-In . SVG Version: 6.00 Build 0)  -->
<svg version="1.1" id="Layer_1" xmlns="http://www.w3.org/2000/svg" xmlns:xlink="http://www.w3.org/1999/xlink" x="0px" y="0px"
	 viewBox="0 0 128 128" style="enable-background:new 0 0 128 128;" xml:space="preserve">
<style type="text/css">
	.st0{fill:#26211F;}
</style>
<g>
	<g>
		<path class="st0" d="M64,0C28.7,0,0,28.7,0,64c0,35.3,28.7,64,64,64s64-28.7,64-64C128,28.7,99.3,0,64,0z M64,122
			C32,122,6,96,6,64C6,32,32,6,64,6s58,26,58,58C122,96,96,122,64,122z M100.8,48.9h-1.7c-1-17.4-15.4-31.3-33.1-31.3
			c-17.7,0-32.1,13.9-33.1,31.3h-1.8c-4.4,0-8,3.6-8,8v22.7c0,4.4,3.6,8,8,8h7.4V52c0.2-0.4,0.3-0.8,0.3-1.3
			c0-15,12.2-27.2,27.2-27.2c15,0,27.2,12.2,27.2,27.2c0,0.3,0.1,0.7,0.2,1v35.9h0.3c-0.8,7-6,12.6-12.7,14.1
			c-0.7-3.7-3.9-6.6-7.9-6.6h-8c-4.4,0-8,3.6-8,8c0,4.4,3.6,8,8,8h8c4.2,0,7.6-3.3,7.9-7.4c7.8-1.6,13.8-8.1,14.6-16.2h5.1
			c4.4,0,8-3.6,8-8V56.9C108.8,52.5,105.2,48.9,100.8,48.9z"/>
	</g>
</g>
</svg>
