<?xml version="1.0" encoding="utf-8"?>
<!-- Generator: Adobe Illustrator 24.3.0, SVG Export Plug-In . SVG Version: 6.00 Build 0)  -->
<svg version="1.1" id="Layer_1" xmlns="http://www.w3.org/2000/svg" xmlns:xlink="http://www.w3.org/1999/xlink" x="0px" y="0px"
	 viewBox="0 0 96 96" style="enable-background:new 0 0 96 96;" xml:space="preserve">
<style type="text/css">
	.st0{fill:#FFFFFF;}
</style>
<path class="st0" d="M48,0C21.5,0,0,21.5,0,48c0,26.5,21.5,48,48,48c26.5,0,48-21.5,48-48C96,21.5,74.5,0,48,0z M48,91.5
	C24,91.5,4.5,72,4.5,48C4.5,24,24,4.5,48,4.5C72,4.5,91.5,24,91.5,48C91.5,72,72,91.5,48,91.5z M39,32H45c0.8,0,1.5-0.7,1.5-1.5
	c0-0.8-0.7-1.5-1.5-1.5h-7.7l-3.8,6.6c-0.4,0.7-0.2,1.6,0.5,2c0.2,0.1,0.5,0.2,0.7,0.2c0.5,0,1-0.3,1.3-0.7L39,32z M54.1,49.4
	c0.2,0.1,0.5,0.2,0.7,0.2c0.5,0,1-0.3,1.3-0.7l3-5.1H65c0.8,0,1.5-0.7,1.5-1.5c0-0.8-0.7-1.5-1.5-1.5h-7.7l-3.8,6.6
	C53.1,48.1,53.4,49,54.1,49.4z M33.5,73.9h16.2l6.8-11.8h13.3l8.1-14l-8.1-14H56.4l-6.8-11.8H33.5l-8.1,14l6.8,11.8l-6.8,11.8
	L33.5,73.9z M56.4,38.6h10.7l5.5,9.5l-5.5,9.5H56.4l-5.5-9.5L56.4,38.6z M30.6,36.3l5.5-9.5h11l5.3,9.3l-5.6,9.8H36.1L30.6,36.3z
	 M36.1,50.4h10.7l5.6,9.8L47,69.4h-11l-5.5-9.5L36.1,50.4z M34,61.2c0.2,0.1,0.5,0.2,0.7,0.2c0.5,0,1-0.3,1.3-0.8l3-5.1H45
	c0.8,0,1.5-0.7,1.5-1.5c0-0.8-0.7-1.5-1.5-1.5h-7.7l-3.8,6.6C33,59.8,33.3,60.8,34,61.2z M13.1,42.7C13.1,42.7,13.1,42.7,13.1,42.7
	c0.4,0.1,0.8-0.1,0.9-0.4l2.5-1.3c0.4-0.2,0.5-0.6,0.3-1c-0.2-0.4-0.6-0.5-1-0.3l-1.4,0.7C17.5,26.6,28.7,16,42.8,13.9
	C61.6,11.1,79.2,24,82.1,42.8c0.1,0.4,0.4,0.6,0.7,0.6c0,0,0.1,0,0.1,0c0.4-0.1,0.7-0.4,0.6-0.9c-3-19.6-21.3-33.2-41-30.2
	C27.9,14.6,16.3,25.5,13,39.8l-0.7-1.4c-0.2-0.4-0.6-0.5-1-0.3c-0.4,0.2-0.5,0.6-0.3,1l1.8,3.7L13.1,42.7z M86.1,49.9l-2.7-3.1
	l-3.1,2.7c-0.3,0.3-0.4,0.7-0.1,1.1c0.3,0.3,0.7,0.4,1.1,0.1l1.2-1.1C81.6,67.8,66.5,82.5,48,82.5C29,82.5,13.5,67,13.5,48
	c0-0.4-0.3-0.8-0.8-0.8c-0.4,0-0.7,0.3-0.7,0.8c0,19.8,16.1,36,36,36c19.3,0,35-15.2,35.9-34.2l1,1.1c0.1,0.2,0.4,0.3,0.6,0.3
	c0.2,0,0.3-0.1,0.5-0.2C86.3,50.7,86.3,50.2,86.1,49.9z"/>
</svg>
