<?xml version="1.0" encoding="utf-8"?>
<!-- Generator: Adobe Illustrator 24.3.0, SVG Export Plug-In . SVG Version: 6.00 Build 0)  -->
<svg version="1.1" id="Layer_1" xmlns="http://www.w3.org/2000/svg" xmlns:xlink="http://www.w3.org/1999/xlink" x="0px" y="0px"
	 viewBox="0 0 96 96" style="enable-background:new 0 0 96 96;" xml:space="preserve">
<style type="text/css">
	.st0{fill:#FFFFFF;}
</style>
<g>
	<g>
		<path class="st0" d="M48,0C21.5,0,0,21.5,0,48s21.5,48,48,48s48-21.5,48-48S74.5,0,48,0z M48,91.5C24,91.5,4.5,72,4.5,48
			S24,4.5,48,4.5S91.5,24,91.5,48S72,91.5,48,91.5z M62.4,19.7l-1.7-3.9L58.1,20c-1.7,2.8-5.4,8.7-8.7,15c-1.1-2.3-2.3-4.5-3.3-6.5
			c-1.9-3.8-3.6-7-4.3-8.7L40,15.3l-2.6,4.9C26,41.1,20.4,54.5,20.4,61c0,10.7,8.7,19.3,19.3,19.3c7.3,0,13.7-4.1,17-10.1
			c1.2,0.2,2.4,0.3,3.7,0.3c10,0,18.2-7.4,18.2-16.4c0-5.8-5.8-16.2-12.2-27.3C64.6,23.8,63,21.1,62.4,19.7z M39.7,75.8
			c-8.2,0-14.8-6.6-14.8-14.8c0-3.7,2.6-12.9,14.7-35.4c0.7,1.4,1.6,3.1,2.5,4.9c4.7,9.1,12.5,24.3,12.5,30.5
			C54.5,69.2,47.9,75.8,39.7,75.8z M60.4,66c-0.7,0-1.3-0.1-2-0.1c0.4-1.6,0.7-3.2,0.7-4.9c0-4.9-3.3-13-7.2-21
			c2.8-5.5,6.1-11,8.4-14.8c0.7,1.2,1.4,2.5,2.3,3.9c4.3,7.5,11.6,20,11.6,25C74.1,60.7,67.9,66,60.4,66z M35,66.9
			c-2.6-1.6-3.8-8.4-1.4-12.3c0.4-0.7,0.2-1.6-0.5-2.1C32.4,52,31.5,52.3,31,53c-3,5-1.7,13.8,2.5,16.4c0.2,0.2,0.5,0.2,0.8,0.2
			c0.5,0,1-0.3,1.3-0.7C36,68.2,35.7,67.3,35,66.9z M37.2,40.6c-0.8-0.3-1.6,0.1-1.9,0.8c-0.5,1.3-2.4,5.9-2.4,5.9l2.8,1.1
			c0,0,1.9-4.7,2.4-5.9C38.3,41.7,37.9,40.9,37.2,40.6z"/>
	</g>
</g>
</svg>
