<?xml version="1.0" encoding="utf-8"?>
<!-- Generator: Adobe Illustrator 24.3.0, SVG Export Plug-In . SVG Version: 6.00 Build 0)  -->
<svg version="1.1" id="Layer_1" xmlns="http://www.w3.org/2000/svg" xmlns:xlink="http://www.w3.org/1999/xlink" x="0px" y="0px"
	 viewBox="0 0 96 96" style="enable-background:new 0 0 96 96;" xml:space="preserve">
<style type="text/css">
	.st0{fill:#FFFFFF;}
</style>
<path class="st0" d="M48,0C21.5,0,0,21.5,0,48c0,26.5,21.5,48,48,48s48-21.5,48-48C96,21.5,74.5,0,48,0z M48,91.5
	C24,91.5,4.5,72,4.5,48C4.5,24,24,4.5,48,4.5S91.5,24,91.5,48C91.5,72,72,91.5,48,91.5z M71.8,52.6c-2.6,0-5,1.1-6.7,2.8l-4-2.9
	c0.9-1.8,1.4-3.8,1.4-5.9c0-3.1-1-5.9-2.8-8.2l3.4-4.1c1.6,1.3,3.7,2.1,6,2.1c5.2,0,9.4-4.2,9.4-9.4s-4.2-9.4-9.4-9.4
	c-5.2,0-9.4,4.2-9.4,9.4c0,1.8,0.5,3.6,1.5,5l-3.5,4.1c-2.3-1.9-5.3-3.1-8.6-3.1c-3.1,0-6,1.1-8.3,2.9l-4.3-4.1
	c0.5-1,0.8-2.1,0.8-3.3c0-4-3.2-7.2-7.2-7.2c-4,0-7.2,3.2-7.2,7.2c0,4,3.2,7.2,7.2,7.2c1.7,0,3.3-0.6,4.5-1.6l4,3.9
	c-1.9,2.3-3,5.3-3,8.5c0,2.1,0.5,4,1.3,5.8l-5.4,3.6c-1.7-2.1-4.3-3.4-7.2-3.4c-5.2,0-9.4,4.2-9.4,9.4c0,5.2,4.2,9.4,9.4,9.4
	c5.2,0,9.4-4.2,9.4-9.4c0-1.2-0.2-2.4-0.7-3.5l5.4-3.6c2,2.6,5,4.4,8.4,4.9v6.8c-3.3,0.7-5.7,3.6-5.7,7.1c0,4,3.2,7.2,7.2,7.2
	c4,0,7.2-3.2,7.2-7.2c0-3.5-2.5-6.4-5.7-7.1V60c3.9-0.2,7.4-2.1,9.7-5l3.9,2.8c-0.6,1.3-1,2.7-1,4.3c0,5.2,4.2,9.4,9.4,9.4
	c5.2,0,9.4-4.2,9.4-9.4C81.2,56.8,77,52.6,71.8,52.6z M69,22.1c2.7,0,4.9,2.2,4.9,4.9c0,2.7-2.2,4.9-4.9,4.9c-2.7,0-4.9-2.2-4.9-4.9
	C64.1,24.3,66.3,22.1,69,22.1z M30,31.3c-1.5,0-2.7-1.2-2.7-2.7c0-1.5,1.2-2.7,2.7-2.7c1.5,0,2.7,1.2,2.7,2.7
	C32.7,30,31.5,31.3,30,31.3z M24.2,67c-2.7,0-4.9-2.2-4.9-4.9c0-2.7,2.2-4.9,4.9-4.9c2.7,0,4.9,2.2,4.9,4.9C29.2,64.8,27,67,24.2,67
	z M51.1,73.7c0,1.5-1.2,2.7-2.7,2.7c-1.5,0-2.7-1.2-2.7-2.7c0-1.5,1.2-2.7,2.7-2.7C49.8,71,51.1,72.2,51.1,73.7z M49,55.6
	c-5,0-9-4-9-9c0-5,4-9,9-9c5,0,9,4,9,9C57.9,51.5,53.9,55.6,49,55.6z M71.8,67c-2.7,0-4.9-2.2-4.9-4.9c0-2.7,2.2-4.9,4.9-4.9
	c2.7,0,4.9,2.2,4.9,4.9C76.7,64.8,74.5,67,71.8,67z M72.4,58c-2.6,0-4.6,2.1-4.6,4.6c0,0.8,0.7,1.5,1.5,1.5c0.8,0,1.5-0.7,1.5-1.5
	c0-0.9,0.7-1.6,1.6-1.6c0.8,0,1.5-0.7,1.5-1.5C73.9,58.6,73.3,58,72.4,58z M67.9,27.2c0-0.8,0.6-1.4,1.4-1.4c0.8,0,1.5-0.7,1.5-1.5
	c0-0.8-0.7-1.5-1.5-1.5c-2.4,0-4.4,2-4.4,4.4c0,0.8,0.7,1.5,1.5,1.5C67.3,28.7,67.9,28.1,67.9,27.2z M25.4,58
	c-2.8,0-5.1,2.3-5.1,5.1c0,0.8,0.7,1.5,1.5,1.5s1.5-0.7,1.5-1.5c0-1.2,0.9-2.1,2.1-2.1c0.8,0,1.5-0.7,1.5-1.5
	C26.9,58.6,26.2,58,25.4,58z M49,39.4c-3.9,0-7.1,3.2-7.1,7.1c0,0.8,0.7,1.5,1.5,1.5c0.8,0,1.5-0.7,1.5-1.5c0-2.3,1.9-4.1,4.1-4.1
	c0.8,0,1.5-0.7,1.5-1.5C50.5,40.1,49.8,39.4,49,39.4z"/>
</svg>
