<?xml version="1.0" encoding="utf-8"?>
<!-- Generator: Adobe Illustrator 24.3.0, SVG Export Plug-In . SVG Version: 6.00 Build 0)  -->
<svg version="1.1" id="Layer_1" xmlns="http://www.w3.org/2000/svg" xmlns:xlink="http://www.w3.org/1999/xlink" x="0px" y="0px"
	 viewBox="0 0 96 96" style="enable-background:new 0 0 96 96;" xml:space="preserve">
<style type="text/css">
	.st0{fill:#FFFFFF;}
</style>
<g>
	<g>
		<path class="st0" d="M48,0C21.5,0,0,21.5,0,48c0,26.5,21.5,48,48,48c26.5,0,48-21.5,48-48C96,21.5,74.5,0,48,0z M48,91.5
			C24,91.5,4.5,72,4.5,48C4.5,24,24,4.5,48,4.5S91.5,24,91.5,48C91.5,72,72,91.5,48,91.5z M48.2,48.6c6.4,0,11.5-5.2,11.5-11.5
			c0-4.4-4.4-13-7.6-19.2c-1.1-2.2-2.1-4.1-2.5-5.1l-1.2-3L46.7,13c-6.7,12.4-10,20.2-10,24.1C36.7,43.5,41.9,48.6,48.2,48.6z
			 M48.2,16.7c0.4,0.8,0.8,1.6,1.3,2.6c2.7,5.3,7.3,14.2,7.3,17.9c0,4.7-3.8,8.5-8.5,8.5c-4.7,0-8.5-3.8-8.5-8.5
			C39.7,34.9,41.2,29.6,48.2,16.7z M48.1,44.2c0.1,0,0.2,0,0.2,0c0.7,0,1.4-0.5,1.5-1.3c0.1-0.8-0.4-1.6-1.3-1.7
			c-1-0.2-2.1-1-2.8-2.2c-0.9-1.5-1.2-3.4-0.6-4.8c0.3-0.8-0.1-1.6-0.9-1.9c-0.8-0.3-1.6,0.1-1.9,0.9c-0.8,2.3-0.5,5,0.9,7.4
			C44.4,42.6,46.2,43.9,48.1,44.2z M38.2,69.9L36.9,67l-1.5,2.8C33,74.1,32,76.7,32,78.2c0,2.6,2.1,4.8,4.8,4.8
			c2.6,0,4.8-2.1,4.8-4.8c0-1.5-1.2-4-2.6-6.8C38.6,70.8,38.3,70.2,38.2,69.9z M36.8,80c-1,0-1.8-0.8-1.8-1.8c0-0.3,0.1-1.3,1.7-4.5
			c0.8,1.5,1.8,3.7,1.8,4.5C38.5,79.2,37.7,80,36.8,80z M50.6,73.7l-1.2-2.9l-1.5,2.8c-2.4,4.3-3.4,6.9-3.4,8.4
			c0,2.6,2.1,4.8,4.8,4.8c2.6,0,4.8-2.1,4.8-4.8c0-1.5-1.2-4-2.6-6.8C51.1,74.6,50.8,74,50.6,73.7z M49.3,83.8c-1,0-1.8-0.8-1.8-1.8
			c0-0.3,0.1-1.3,1.7-4.5C50,79,51,81.2,51,82C51,83,50.2,83.8,49.3,83.8z M63.6,69.9L62.4,67l-1.5,2.8c-2.4,4.3-3.4,6.9-3.4,8.4
			c0,2.6,2.1,4.8,4.8,4.8c2.6,0,4.8-2.1,4.8-4.8c0-1.5-1.2-4-2.6-6.8C64.1,70.8,63.8,70.2,63.6,69.9z M62.2,80c-1,0-1.8-0.8-1.8-1.8
			c0-0.3,0.1-1.3,1.7-4.5c0.8,1.5,1.8,3.7,1.8,4.5C64,79.2,63.2,80,62.2,80z M73.8,59.9h-52c-0.8,0-1.5,0.7-1.5,1.5
			c0,0.8,0.7,1.5,1.5,1.5h52c0.8,0,1.5-0.7,1.5-1.5C75.3,60.6,74.6,59.9,73.8,59.9z M79.3,54H16.3c-0.8,0-1.5,0.7-1.5,1.5
			c0,0.8,0.7,1.5,1.5,1.5h62.9c0.8,0,1.5-0.7,1.5-1.5C80.8,54.6,80.1,54,79.3,54z"/>
	</g>
</g>
</svg>
