<?xml version="1.0" encoding="utf-8"?>
<!-- Generator: Adobe Illustrator 24.3.0, SVG Export Plug-In . SVG Version: 6.00 Build 0)  -->
<svg version="1.1" id="Layer_1" xmlns="http://www.w3.org/2000/svg" xmlns:xlink="http://www.w3.org/1999/xlink" x="0px" y="0px"
	 viewBox="0 0 17 23" style="enable-background:new 0 0 17 23;" xml:space="preserve">
<g>
	<path d="M0.6,12.1h2.3V0.5c0.8-0.2,1.7-0.3,2.6-0.4S7.5,0,8.4,0c1,0,2,0.1,2.9,0.3s1.8,0.6,2.6,1.1c0.7,0.5,1.3,1.2,1.8,2.1
		s0.7,2,0.7,3.4c0,1.4-0.2,2.5-0.7,3.4c-0.5,0.9-1.1,1.6-1.9,2.2c-0.8,0.6-1.6,1-2.6,1.2c-1,0.2-2,0.4-3,0.4l-2.6,0v2.3H11v2H5.6V23
		H2.9v-4.5H0.6v-2h2.3v-2.3H0.6V12.1z M8.5,2.3c-0.6,0-1.1,0-1.6,0c-0.5,0-0.9,0.1-1.2,0.1v9.4h2.5c0.7,0,1.3-0.1,1.9-0.2
		c0.6-0.1,1.2-0.4,1.8-0.7s0.9-0.9,1.3-1.5c0.3-0.6,0.5-1.5,0.5-2.5c0-0.9-0.1-1.6-0.4-2.2c-0.3-0.6-0.6-1.1-1.1-1.4
		c-0.5-0.4-1-0.6-1.6-0.8C9.8,2.3,9.1,2.3,8.5,2.3z"/>
</g>
</svg>
