<?xml version="1.0" encoding="utf-8"?>
<!-- Generator: Adobe Illustrator 24.3.0, SVG Export Plug-In . SVG Version: 6.00 Build 0)  -->
<svg version="1.1" id="Layer_1" xmlns="http://www.w3.org/2000/svg" xmlns:xlink="http://www.w3.org/1999/xlink" x="0px" y="0px"
	 viewBox="0 0 50 23" style="enable-background:new 0 0 50 23;" xml:space="preserve">
<g>
	<path d="M2.6,9.4h1.8V0.5c0.6-0.1,1.3-0.3,2-0.3c0.7-0.1,1.5-0.1,2.2-0.1c0.8,0,1.5,0.1,2.3,0.2c0.7,0.2,1.4,0.4,2,0.8
		s1,0.9,1.4,1.6c0.4,0.7,0.5,1.6,0.5,2.6c0,1.1-0.2,1.9-0.5,2.6c-0.4,0.7-0.8,1.3-1.4,1.7c-0.6,0.4-1.3,0.7-2,0.9
		C10,10.9,9.2,11,8.4,11l-2,0v1.8h4.2v1.6H6.4v3.5H4.3v-3.5H2.6v-1.6h1.8V11H2.6V9.4z M8.6,1.9c-0.4,0-0.8,0-1.2,0
		C7,1.9,6.6,2,6.4,2v7.2h1.9c0.5,0,1,0,1.5-0.1c0.5-0.1,1-0.3,1.4-0.6c0.4-0.3,0.7-0.7,1-1.2c0.3-0.5,0.4-1.1,0.4-1.9
		c0-0.7-0.1-1.3-0.3-1.7c-0.2-0.5-0.5-0.8-0.9-1.1C11,2.3,10.6,2.1,10.1,2C9.6,1.9,9.1,1.9,8.6,1.9z"/>
	<path d="M23.6,0l1.6,0.7L16,21.4l-1.6-0.7L23.6,0z"/>
	<path d="M29.9,13.4l0.7,2.4h0.1l0.6-2.4l2.4-8.1h2L32,16.6c-0.3,0.8-0.6,1.6-0.8,2.4c-0.3,0.8-0.6,1.5-0.9,2.1s-0.7,1.1-1.1,1.4
		c-0.4,0.4-0.9,0.5-1.5,0.5c-0.6,0-1.1-0.1-1.5-0.3l0.4-1.7c0.2,0.1,0.4,0.1,0.6,0.1c0.5,0,0.9-0.2,1.4-0.7c0.4-0.5,0.8-1.3,1.1-2.5
		l-5-12.5h2.3L29.9,13.4z"/>
	<path d="M45.4,7.1h-5.5v10.8h-2V5.3h9.6v12.5h-2V7.1z"/>
</g>
</svg>
